<svg width="100%" height="100%" viewBox="0 0 500 500" version="1.1" xmlns="http://www.w3.org/2000/svg" xmlns:xlink="http://www.w3.org/1999/xlink" xml:space="preserve" xmlns:serif="http://www.serif.com/" style="fill-rule:evenodd;clip-rule:evenodd;stroke-linecap:round;stroke-linejoin:round;stroke-miterlimit:1.5;">
  <style type="text/css">
  
        path.first { animation: x 2s ease alternate infinite; transform-origin: 50% 50%; }
        path.second { animation: x2 4s ease alternate infinite;  transform-origin: 50% 50%; }
        path.third { animation: x3 2s ease alternate infinite;  transform-origin: 50% 50%; }

        @keyframes x {
            0% { stroke: #222; transform: rotate(5deg); translate(-50px, 20px);  }
            50% { stroke: #002B28; rotate(0deg)}
            100% { stroke: #002B28; rotate(0deg)}
        }

    @keyframes x2 {
            0% { stroke: #222; transform: rotate(-15deg) translate(10px, 10px); }
            50% { stroke: #002B28; rotate(0deg)}
            100% { stroke: #002B28; rotate(0deg)}
        }

    @keyframes x3 {
            0% { stroke: #222; transform: rotate(-5deg); translate(50px, -20px);  }
            50% { stroke: #002B28; rotate(0deg)}
            100% { stroke: #002B28; rotate(0deg)}
        }
  </style>

<g><rect x="0" y="0" width="500" height="500" style="fill:#222;"/>

<path class="first" d="M174.011,149.409l0.858,0.12l0.84,0.211l0.812,0.301l0.775,0.387l0.728,0.469l0.674,0.545l0.61,0.614l0.541,0.677l0.464,0.731l0.383,0.777l0.296,0.814l0.207,0.842l0.114,0.858l0.021,0.866l-0.007,0.235l-0.034,0.418l-0.047,0.362l-0.052,0.314l-0.056,0.278l-0.058,0.249l-0.058,0.225l-0.057,0.204l-0.057,0.187l-0.066,0.204l-0.1,0.284l-0.108,0.286l-0.107,0.263l-0.105,0.248l-0.106,0.237l-0.106,0.23l-0.107,0.225l-0.109,0.222l-0.11,0.222l-0.114,0.222l-0.116,0.222l-0.119,0.225l-0.122,0.226l-0.125,0.23l-0.128,0.233l-0.132,0.236l-0.135,0.239l-0.138,0.243l-0.142,0.248l-0.146,0.251l-0.148,0.255l-0.153,0.259l-0.155,0.263l-0.159,0.267l-0.165,0.275l-0.332,0.55l-0.347,0.57l-0.359,0.585l-0.372,0.599l-0.382,0.612l-0.394,0.626l-0.403,0.638l-0.413,0.649l-0.422,0.66l-0.43,0.67l-0.438,0.678l-0.445,0.686l-0.451,0.693l-0.457,0.699l-0.462,0.704l-0.467,0.708l-0.47,0.712l-0.473,0.713l-0.476,0.715l-0.477,0.715l-0.478,0.715l-0.479,0.713l-0.478,0.71l-0.477,0.707l-0.476,0.702l-0.473,0.696l-0.47,0.691l-0.466,0.682l-0.462,0.675l-0.456,0.664l-0.451,0.655l-0.445,0.643l-0.438,0.631l-0.429,0.618l-0.422,0.604l-0.412,0.588l-0.403,0.573l-0.392,0.556l-0.382,0.538l-0.37,0.52l-0.358,0.5l-0.346,0.48l-0.333,0.46l-0.319,0.439l-0.307,0.417l-0.292,0.395l-0.28,0.373l-0.267,0.353l-0.243,0.316l-0.936,1.209l-0.914,1.182l-0.902,1.171l-0.891,1.16l-0.88,1.148l-0.869,1.138l-0.858,1.126l-0.847,1.115l-0.837,1.105l-0.826,1.093l-0.816,1.083l-0.805,1.072l-0.795,1.061l-0.785,1.051l-0.774,1.041l-0.765,1.03l-0.754,1.019l-0.745,1.01l-0.734,0.999l-0.725,0.99l-0.716,0.979l-0.706,0.969l-0.696,0.96l-0.687,0.95l-0.678,0.94l-0.668,0.931l-0.659,0.921l-0.651,0.911l-0.641,0.902l-0.632,0.893l-0.624,0.884l-0.615,0.875l-0.607,0.865l-0.597,0.857l-0.59,0.848l-0.581,0.838l-0.573,0.831l-0.564,0.821l-0.557,0.813l-0.548,0.804l-0.541,0.796l-0.533,0.788l-0.525,0.779l-0.517,0.771l-0.51,0.763l-0.503,0.755l-0.495,0.748l-0.487,0.739l-0.481,0.731l-0.473,0.724l-0.466,0.716l-0.46,0.708l-0.452,0.701l-0.446,0.694l-0.439,0.686l-0.432,0.68l-0.426,0.672l-0.419,0.665l-0.413,0.658l-0.407,0.651l-0.401,0.644l-0.395,0.637l-0.388,0.631l-0.383,0.624l-0.377,0.618l-0.371,0.612l-0.366,0.605l-0.36,0.599l-0.355,0.592l-0.349,0.587l-0.344,0.581l-0.339,0.575l-0.334,0.569l-0.328,0.563l-0.324,0.557l-0.319,0.553l-0.315,0.546l-0.309,0.542l-0.305,0.536l-0.301,0.531l-0.297,0.525l-0.292,0.521l-0.288,0.516l-0.283,0.511l-0.28,0.506l-0.276,0.502l-0.272,0.497l-0.269,0.492l-0.265,0.489l-0.261,0.484l-0.258,0.479l-0.254,0.476l-0.252,0.472l-0.248,0.468l-0.245,0.464l-0.242,0.46l-0.239,0.457l-0.236,0.453l-0.234,0.45l-0.23,0.443l-0.456,0.886l-0.445,0.871l-0.437,0.86l-0.429,0.849l-0.422,0.839l-0.416,0.831l-0.41,0.821l-0.404,0.814l-0.524,1.054l0.13,0.216l0.328,0.54l0.352,0.574l0.374,0.607l0.396,0.638l0.416,0.67l0.438,0.7l0.458,0.729l0.477,0.757l0.496,0.785l0.515,0.812l0.533,0.838l0.55,0.863l0.568,0.888l0.584,0.913l0.601,0.935l0.616,0.958l0.632,0.98l0.647,1.002l0.661,1.022l0.675,1.042l0.689,1.061l0.702,1.08l0.715,1.097l0.727,1.115l0.739,1.132l0.75,1.148l0.761,1.163l0.772,1.177l0.782,1.192l0.79,1.204l1.611,2.448l1.644,2.493l1.674,2.533l1.7,2.569l1.724,2.598l1.744,2.623l1.76,2.642l1.772,2.657l1.783,2.666l1.788,2.671l1.791,2.668l1.791,2.664l0.893,1.326l0.892,1.324l0.891,1.319l0.888,1.315l0.885,1.309l0.882,1.303l0.878,1.296l0.875,1.289l0.87,1.281l0.865,1.271l0.859,1.263l0.854,1.252l0.848,1.242l0.84,1.23l0.834,1.219l0.827,1.205l0.818,1.193l0.81,1.178l0.801,1.164l0.792,1.148l0.782,1.133l0.772,1.116l0.762,1.098l0.751,1.081l0.739,1.062l0.727,1.042l0.715,1.023l0.702,1.002l0.688,0.981l0.675,0.959l0.661,0.936l0.647,0.912l0.631,0.889l0.615,0.864l0.6,0.838l0.583,0.812l0.565,0.785l0.549,0.757l0.53,0.728l0.511,0.699l0.492,0.669l0.472,0.638l0.452,0.606l0.432,0.575l0.204,0.271l0.201,0.264l0.196,0.256l0.189,0.247l0.183,0.238l0.178,0.228l0.17,0.219l0.164,0.208l0.157,0.199l0.151,0.188l0.143,0.178l0.135,0.166l0.127,0.155l0.119,0.143l0.109,0.13l0.1,0.117l0.067,0.078l0.512,0.403l0.618,0.607l0.549,0.67l0.473,0.726l0.392,0.773l0.306,0.81l0.216,0.839l0.125,0.857l0.032,0.865l-0.063,0.864l-0.155,0.853l-0.247,0.83l-0.335,0.799l-0.42,0.758l-0.498,0.708l-0.573,0.65l-0.639,0.584l-0.699,0.512l-0.751,0.433l-0.792,0.349l-0.826,0.262l-0.849,0.171l-0.863,0.078l-0.866,-0.015l-0.018,-0.001l-0.493,-0.051l-0.488,-0.082l-0.02,-0.004l-0.763,-0.191l-0.333,-0.101l-0.57,-0.225l-0.457,-0.215l-0.376,-0.204l-0.312,-0.187l-0.266,-0.174l-0.228,-0.159l-0.2,-0.149l-0.179,-0.14l-0.159,-0.13l-0.147,-0.124l-0.153,-0.134l-0.218,-0.2l-0.216,-0.208l-0.199,-0.199l-0.188,-0.194l-0.18,-0.192l-0.176,-0.192l-0.173,-0.193l-0.172,-0.195l-0.171,-0.199l-0.174,-0.204l-0.175,-0.208l-0.177,-0.214l-0.18,-0.219l-0.184,-0.226l-0.186,-0.231l-0.19,-0.238l-0.194,-0.245l-0.198,-0.252l-0.202,-0.259l-0.206,-0.265l-0.21,-0.273l-0.215,-0.279l-0.219,-0.287l-0.223,-0.294l-0.23,-0.304l-0.465,-0.619l-0.485,-0.651l-0.502,-0.678l-0.519,-0.706l-0.536,-0.733l-0.553,-0.76l-0.569,-0.785l-0.585,-0.811l-0.6,-0.837l-0.616,-0.86l-0.63,-0.885l-0.646,-0.909l-0.659,-0.931l-0.673,-0.953l-0.687,-0.976l-0.699,-0.996l-0.713,-1.017l-0.724,-1.036l-0.737,-1.056l-0.748,-1.075l-0.758,-1.093l-0.77,-1.11l-0.78,-1.126l-0.789,-1.143l-0.799,-1.159l-0.808,-1.174l-0.816,-1.187l-0.825,-1.202l-0.832,-1.214l-0.84,-1.227l-0.847,-1.239l-0.853,-1.249l-0.859,-1.261l-0.864,-1.27l-0.87,-1.279l-0.875,-1.288l-0.879,-1.295l-0.883,-1.303l-0.887,-1.31l-0.89,-1.316l-0.892,-1.321l-0.895,-1.326l-0.896,-1.33l-0.899,-1.334l-1.797,-2.674l-1.8,-2.681l-1.796,-2.682l-1.79,-2.677l-1.781,-2.669l-1.767,-2.654l-1.752,-2.635l-1.731,-2.61l-1.709,-2.581l-1.682,-2.546l-1.653,-2.506l-1.618,-2.46l-0.797,-1.213l-0.786,-1.198l-0.777,-1.185l-0.766,-1.171l-0.755,-1.155l-0.745,-1.14l-0.732,-1.124l-0.72,-1.106l-0.708,-1.089l-0.695,-1.071l-0.682,-1.052l-0.668,-1.032l-0.654,-1.013l-0.639,-0.991l-0.624,-0.971l-0.609,-0.948l-0.594,-0.926l-0.577,-0.903l-0.56,-0.879l-0.544,-0.855l-0.526,-0.83l-0.509,-0.805l-0.491,-0.778l-0.472,-0.753l-0.453,-0.725l-0.435,-0.698l-0.415,-0.67l-0.395,-0.641l-0.376,-0.614l-0.356,-0.585l-0.335,-0.556l-0.316,-0.528l-0.292,-0.494l-0.144,-0.244l-0.135,-0.233l-0.131,-0.227l-0.126,-0.22l-0.122,-0.215l-0.117,-0.209l-0.114,-0.204l-0.11,-0.201l-0.106,-0.198l-0.105,-0.196l-0.102,-0.197l-0.101,-0.2l-0.101,-0.207l-0.104,-0.219l-0.109,-0.24l-0.116,-0.275l-0.114,-0.29l-0.082,-0.23l-0.075,-0.228l-0.081,-0.269l-0.086,-0.327l-0.088,-0.407l-0.084,-0.523l-0.026,-0.306l-0.029,-0.78l0,-0.015l0.024,-0.545l0.062,-0.541l0.002,-0.013l0.149,-0.753l0.221,-0.735l0.003,-0.01l0.179,-0.46l0.207,-0.449l0.384,-0.769l0.384,-0.773l0.784,-1.578l0.802,-1.617l0.412,-0.828l0.419,-0.839l0.427,-0.852l0.435,-0.866l0.444,-0.88l0.455,-0.894l0.464,-0.909l0.475,-0.921l0.243,-0.471l0.246,-0.472l0.248,-0.476l0.252,-0.48l0.254,-0.485l0.258,-0.488l0.262,-0.493l0.265,-0.498l0.268,-0.502l0.273,-0.506l0.276,-0.511l0.279,-0.516l0.284,-0.52l0.287,-0.525l0.292,-0.53l0.296,-0.535l0.3,-0.54l0.304,-0.545l0.308,-0.55l0.313,-0.555l0.318,-0.561l0.322,-0.565l0.326,-0.571l0.332,-0.577l0.336,-0.582l0.342,-0.588l0.346,-0.593l0.351,-0.599l0.357,-0.605l0.361,-0.61l0.367,-0.617l0.373,-0.622l0.378,-0.629l0.383,-0.635l0.39,-0.641l0.395,-0.647l0.4,-0.654l0.407,-0.66l0.413,-0.666l0.418,-0.673l0.425,-0.68l0.431,-0.687l0.437,-0.693l0.444,-0.7l0.451,-0.707l0.456,-0.715l0.464,-0.721l0.47,-0.729l0.477,-0.735l0.484,-0.743l0.491,-0.751l0.498,-0.758l0.505,-0.765l0.512,-0.774l0.52,-0.781l0.527,-0.788l0.534,-0.797l0.542,-0.805l0.55,-0.812l0.557,-0.821l0.566,-0.829l0.573,-0.837l0.581,-0.846l0.589,-0.853l0.598,-0.863l0.605,-0.871l0.614,-0.88l0.623,-0.888l0.631,-0.897l0.639,-0.906l0.648,-0.915l0.657,-0.925l0.666,-0.933l0.674,-0.942l0.684,-0.952l0.693,-0.961l0.702,-0.971l0.711,-0.98l0.721,-0.99l0.73,-0.999l0.739,-1.009l0.749,-1.019l0.759,-1.029l0.769,-1.039l0.779,-1.049l0.788,-1.059l0.799,-1.07l0.808,-1.079l0.819,-1.091l0.829,-1.1l0.84,-1.111l0.85,-1.122l0.86,-1.133l0.871,-1.143l0.882,-1.154l0.893,-1.165l0.904,-1.177l0.914,-1.187l0.926,-1.199l0.925,-1.194l0.192,-0.25l0.206,-0.271l0.228,-0.305l0.25,-0.337l0.269,-0.366l0.287,-0.394l0.304,-0.42l0.321,-0.445l0.335,-0.469l0.349,-0.49l0.362,-0.511l0.374,-0.53l0.386,-0.549l0.397,-0.566l0.406,-0.582l0.416,-0.598l0.424,-0.611l0.431,-0.624l0.438,-0.636l0.444,-0.646l0.45,-0.657l0.454,-0.665l0.458,-0.672l0.461,-0.679l0.464,-0.685l0.465,-0.689l0.466,-0.692l0.466,-0.695l0.466,-0.696l0.465,-0.696l0.462,-0.695l0.46,-0.694l0.457,-0.691l0.452,-0.686l0.447,-0.682l0.442,-0.675l0.435,-0.668l0.428,-0.66l0.42,-0.651l0.411,-0.64l0.402,-0.628l0.392,-0.616l0.38,-0.601l0.369,-0.587l0.356,-0.57l0.342,-0.552l0.328,-0.534l0.313,-0.513l0.298,-0.495l0.14,-0.233l0.137,-0.23l0.133,-0.225l0.128,-0.217l0.123,-0.211l0.118,-0.204l0.112,-0.196l0.107,-0.189l0.102,-0.18l0.096,-0.172l0.09,-0.163l0.083,-0.153l0.077,-0.143l0.07,-0.132l0.063,-0.121l0.056,-0.108l0.039,-0.08l0.19,-0.609l0.344,-0.795l0.429,-0.753l0.507,-0.702l0.581,-0.643l0.646,-0.577l0.705,-0.503l0.755,-0.424l0.797,-0.34l0.829,-0.252l0.851,-0.16l0.864,-0.068l0.866,0.026Zm0.468,237.632l-0.263,-0.104l-0.184,-0.056l0.447,0.16Zm-0.654,-0.223l-0.277,-0.084l-0.44,-0.087l0.717,0.171Zm-0.766,-0.181l-0.365,-0.072l-0.477,-0.035l0.842,0.107Zm-7.683,-230.037l-0.029,0.359l-0.006,0.181l0.066,-0.783l-0.031,0.243Zm0.122,-0.754l-0.042,0.207l-0.011,0.067l0.056,-0.29l-0.003,0.016Z" style="fill:#002b28;"/>
<path class="second" d="M326.176,99.648l2.33,1.513l1.672,2.219l0.812,2.657l0.017,0.142l0.024,0.255l0.016,0.25l0.01,0.242l0.003,0.241l-0.005,0.284l-0.02,0.397l-0.043,0.423l-0.058,0.402l-0.071,0.378l-0.08,0.353l-0.089,0.335l-0.096,0.315l-0.099,0.295l-0.103,0.277l-0.105,0.261l-0.108,0.249l-0.108,0.233l-0.108,0.22l-0.108,0.211l-0.108,0.199l-0.108,0.191l-0.106,0.18l-0.105,0.173l-0.105,0.166l-0.103,0.158l-0.102,0.152l-0.101,0.147l-0.099,0.14l-0.098,0.136l-0.097,0.131l-0.095,0.126l-0.103,0.134l-0.171,0.217l-0.176,0.215l-0.169,0.202l-0.161,0.189l-0.153,0.174l-0.145,0.163l-0.14,0.155l-0.224,0.245l-0.005,0.013l-0.018,0.054l-0.019,0.059l-0.021,0.066l-0.022,0.071l-0.023,0.078l-0.023,0.081l-0.025,0.088l-0.025,0.095l-0.026,0.098l-0.027,0.103l-0.025,0.101l-0.059,0.242l-0.059,0.251l-0.062,0.268l-0.066,0.288l-0.139,0.616l-0.078,0.337l-0.083,0.35l-0.087,0.355l-0.05,0.198l-0.051,0.192l-0.052,0.197l-0.055,0.201l-0.057,0.203l-0.061,0.208l-0.064,0.213l-0.068,0.217l-0.071,0.22l-0.075,0.224l-0.08,0.228l-0.084,0.233l-0.089,0.235l-0.095,0.241l-0.101,0.245l-0.107,0.247l-0.114,0.252l-0.113,0.238l-0.148,0.303l-0.14,0.28l-0.141,0.275l-0.14,0.27l-0.139,0.264l-0.139,0.259l-0.137,0.253l-0.136,0.249l-0.135,0.244l-0.135,0.243l-0.256,0.458l-0.494,0.876l-0.232,0.417l-0.108,0.195l-0.107,0.195l-0.104,0.19l-0.1,0.186l-0.096,0.181l-0.093,0.177l-0.088,0.173l-0.085,0.168l-0.081,0.164l-0.077,0.159l-0.073,0.155l-0.069,0.15l-0.069,0.155l-0.027,0.061l-0.029,0.068l-0.038,0.09l-0.037,0.091l-0.038,0.093l-0.038,0.094l-0.038,0.097l-0.038,0.098l-0.037,0.099l-0.038,0.102l-0.038,0.104l-0.035,0.097l-0.079,0.225l-0.076,0.222l-0.076,0.229l-0.076,0.236l-0.077,0.242l-0.077,0.249l-0.077,0.255l-0.077,0.26l-0.078,0.266l-0.079,0.273l-0.078,0.274l-0.163,0.577l-0.166,0.592l-0.171,0.608l-0.089,0.315l-0.091,0.318l-0.094,0.321l-0.095,0.327l-0.099,0.331l-0.102,0.335l-0.105,0.339l-0.109,0.343l-0.113,0.347l-0.11,0.328l-0.134,0.398l-0.133,0.399l-0.141,0.422l-0.146,0.446l-0.154,0.467l-0.159,0.489l-0.165,0.511l-0.17,0.529l-0.36,1.124l-0.381,1.2l-0.403,1.274l-0.422,1.345l-0.441,1.414l-0.46,1.479l-0.478,1.541l-0.494,1.601l-0.511,1.659l-0.525,1.713l-0.541,1.764l-0.554,1.813l-0.567,1.859l-0.58,1.903l-0.591,1.944l-0.602,1.981l-1.234,4.068l-1.268,4.188l-1.296,4.287l-1.319,4.366l-2.682,8.881l-1.351,4.473l-1.351,4.466l-1.344,4.44l-1.331,4.39l-1.312,4.321l-0.648,2.128l-0.641,2.103l-0.633,2.075l-0.626,2.044l-0.616,2.011l-0.606,1.976l-0.596,1.937l-0.585,1.897l-0.573,1.853l-0.561,1.807l-0.547,1.758l-0.533,1.707l-0.519,1.654l-0.503,1.597l-0.487,1.539l-0.471,1.478l-0.453,1.413l-0.22,0.685l-0.216,0.666l-0.211,0.649l-0.206,0.632l-0.201,0.615l-0.197,0.596l-0.192,0.579l-0.187,0.561l-0.182,0.543l-0.178,0.527l-0.188,0.551l-0.217,0.631l-0.245,0.704l-0.272,0.777l-0.297,0.848l-0.323,0.917l-0.348,0.984l-0.372,1.047l-0.394,1.109l-0.416,1.17l-0.894,2.502l-0.97,2.707l-1.039,2.889l-1.098,3.051l-1.152,3.19l-1.196,3.308l-1.234,3.402l-1.262,3.477l-1.284,3.528l-1.297,3.559l-1.303,3.566l-1.3,3.553l-1.29,3.516l-0.64,1.739l-0.633,1.722l-0.627,1.701l-0.62,1.679l-0.611,1.653l-0.602,1.626l-0.591,1.595l-0.58,1.562l-0.568,1.525l-0.554,1.487l-0.541,1.445l-0.525,1.401l-0.509,1.355l-0.492,1.305l-0.474,1.253l-0.456,1.199l-0.435,1.141l-0.415,1.083l-0.393,1.02l-0.371,0.957l-0.348,0.887l-0.166,0.423l-0.16,0.404l-0.154,0.386l-0.148,0.369l-0.142,0.352l-0.136,0.335l-0.131,0.319l-0.126,0.303l-0.121,0.287l-0.117,0.274l-0.114,0.263l-0.113,0.254l-0.116,0.253l-0.089,0.188l-0.034,0.072l-0.018,0.04l-0.032,0.073l-0.043,0.1l-0.052,0.126l-0.059,0.148l-0.067,0.167l-0.072,0.188l-0.079,0.204l-0.083,0.221l-0.088,0.238l-0.093,0.252l-0.097,0.267l-0.101,0.28l-0.105,0.294l-0.109,0.307l-0.112,0.319l-0.115,0.328l-0.243,0.701l-0.253,0.742l-0.265,0.782l-0.276,0.821l-0.287,0.858l-0.295,0.891l-0.305,0.924l-0.313,0.954l-0.321,0.982l-0.328,1.008l-0.335,1.032l-0.341,1.054l-0.346,1.072l-0.708,2.201l-0.724,2.255l-0.737,2.297l-1.491,4.654l-0.748,2.329l-0.743,2.308l-0.369,1.143l-0.367,1.132l-0.363,1.12l-0.36,1.105l-0.356,1.09l-0.352,1.072l-0.346,1.053l-0.342,1.031l-0.335,1.008l-0.329,0.984l-0.323,0.957l-0.315,0.929l-0.308,0.899l-0.299,0.866l-0.148,0.425l-0.146,0.414l-0.142,0.405l-0.141,0.397l-0.139,0.388l-0.137,0.38l-0.134,0.37l-0.133,0.362l-0.13,0.353l-0.128,0.343l-0.127,0.335l-0.124,0.326l-0.123,0.318l-0.121,0.309l-0.12,0.3l-0.119,0.293l-0.118,0.287l-0.118,0.28l-0.119,0.275l-0.12,0.271l-0.124,0.271l-0.129,0.271l-0.127,0.259l-0.081,0.158l-0.076,0.145l-0.081,0.151l-0.087,0.157l-0.094,0.163l-0.103,0.174l-0.072,0.115l-0.016,0.038l-0.058,0.138l-0.068,0.163l-0.075,0.186l-0.083,0.207l-0.089,0.227l-0.096,0.246l-0.101,0.264l-0.107,0.28l-0.112,0.297l-0.116,0.313l-0.122,0.327l-0.126,0.342l-0.13,0.357l-0.133,0.366l-0.282,0.783l-0.296,0.828l-0.31,0.875l-0.324,0.918l-0.335,0.96l-0.348,0.998l-0.358,1.035l-0.368,1.067l-0.377,1.099l-0.386,1.127l-0.394,1.153l-0.401,1.176l-0.407,1.198l-0.83,2.451l-0.848,2.508l-0.858,2.545l-0.864,2.565l-1.721,5.113l-0.847,2.513l-0.831,2.457l-0.807,2.384l-0.395,1.161l-0.386,1.135l-0.378,1.107l-0.37,1.079l-0.36,1.047l-0.349,1.013l-0.339,0.978l-0.328,0.94l-0.316,0.9l-0.303,0.858l-0.29,0.816l-0.276,0.766l-0.135,0.372l-0.13,0.356l-0.126,0.345l-0.124,0.333l-0.12,0.322l-0.117,0.309l-0.113,0.299l-0.111,0.287l-0.108,0.278l-0.106,0.267l-0.105,0.259l-0.103,0.251l-0.105,0.247l-0.107,0.247l-0.112,0.251l-0.114,0.241l-0.077,0.158l-0.075,0.15l-0.084,0.161l-0.098,0.179l-0.117,0.204l-0.143,0.236l-0.186,0.285l-0.119,0.166l-1.987,1.943l-2.531,1.146l-2.77,0.211l-2.675,-0.749l-2.258,-1.619l-1.569,-2.293l-0.689,-2.692l0.273,-2.765l1.202,-2.505l-0.082,0.115l-0.147,0.225l-0.101,0.166l-0.072,0.126l-0.05,0.091l-0.033,0.065l-0.023,0.044l-0.021,0.044l0.006,-0.013l0.017,-0.038l0.033,-0.075l0.046,-0.109l0.056,-0.136l0.065,-0.161l0.072,-0.183l0.08,-0.205l0.087,-0.225l0.093,-0.243l0.098,-0.26l0.103,-0.278l0.109,-0.294l0.114,-0.309l0.118,-0.325l0.122,-0.336l0.26,-0.723l0.275,-0.773l0.291,-0.822l0.305,-0.869l0.318,-0.913l0.331,-0.954l0.342,-0.994l0.354,-1.029l0.364,-1.063l0.374,-1.095l0.383,-1.123l0.39,-1.149l0.803,-2.37l0.827,-2.447l0.844,-2.504l1.721,-5.111l0.865,-2.569l0.861,-2.552l0.851,-2.519l0.835,-2.465l0.411,-1.209l0.404,-1.187l0.398,-1.166l0.391,-1.141l0.383,-1.115l0.375,-1.086l0.365,-1.055l0.355,-1.022l0.346,-0.987l0.334,-0.95l0.323,-0.91l0.31,-0.87l0.298,-0.824l0.145,-0.4l0.141,-0.386l0.138,-0.375l0.135,-0.364l0.131,-0.352l0.129,-0.34l0.125,-0.33l0.122,-0.317l0.119,-0.307l0.117,-0.297l0.114,-0.286l0.112,-0.277l0.111,-0.268l0.111,-0.262l0.112,-0.258l0.115,-0.257l0.12,-0.261l0.123,-0.253l0.081,-0.161l0.079,-0.152l0.088,-0.164l0.1,-0.178l0.117,-0.201l0.141,-0.225l0.014,-0.023l0.02,-0.043l0.052,-0.118l0.061,-0.14l0.068,-0.162l0.076,-0.182l0.081,-0.2l0.086,-0.218l0.092,-0.234l0.097,-0.25l0.101,-0.264l0.105,-0.278l0.109,-0.293l0.113,-0.306l0.116,-0.318l0.12,-0.33l0.124,-0.343l0.126,-0.353l0.129,-0.365l0.133,-0.376l0.135,-0.386l0.137,-0.393l0.285,-0.824l0.294,-0.858l0.303,-0.892l0.311,-0.925l0.32,-0.954l0.327,-0.982l0.333,-1.008l0.34,-1.032l0.346,-1.054l0.35,-1.073l0.356,-1.092l0.359,-1.107l0.363,-1.12l0.365,-1.132l0.739,-2.295l0.745,-2.318l1.49,-4.65l0.737,-2.301l0.727,-2.265l0.712,-2.212l0.35,-1.085l0.345,-1.065l0.339,-1.046l0.334,-1.023l0.326,-1l0.32,-0.975l0.313,-0.947l0.305,-0.919l0.296,-0.889l0.288,-0.857l0.279,-0.823l0.27,-0.789l0.259,-0.749l0.128,-0.366l0.124,-0.353l0.122,-0.344l0.12,-0.335l0.117,-0.325l0.115,-0.316l0.113,-0.306l0.11,-0.298l0.109,-0.289l0.108,-0.28l0.105,-0.272l0.105,-0.265l0.105,-0.26l0.105,-0.254l0.107,-0.251l0.11,-0.252l0.115,-0.255l0.093,-0.195l0.045,-0.096l0.035,-0.076l0.053,-0.119l0.067,-0.154l0.079,-0.186l0.09,-0.215l0.1,-0.24l0.11,-0.266l0.117,-0.29l0.127,-0.312l0.133,-0.333l0.142,-0.355l0.148,-0.375l0.155,-0.392l0.332,-0.851l0.357,-0.92l0.382,-0.989l0.404,-1.056l0.427,-1.118l0.447,-1.179l0.468,-1.235l0.486,-1.289l0.503,-1.34l0.521,-1.388l0.536,-1.434l0.55,-1.475l0.564,-1.516l0.577,-1.552l0.588,-1.587l0.599,-1.617l0.608,-1.646l0.617,-1.672l0.625,-1.695l0.631,-1.715l0.636,-1.731l1.287,-3.507l1.296,-3.542l1.299,-3.556l1.294,-3.549l1.28,-3.519l1.26,-3.467l1.229,-3.394l1.193,-3.297l1.148,-3.18l1.095,-3.04l1.034,-2.877l0.965,-2.693l0.889,-2.488l0.412,-1.157l0.39,-1.099l0.367,-1.035l0.343,-0.969l0.317,-0.9l0.291,-0.828l0.263,-0.752l0.233,-0.673l0.204,-0.589l0.172,-0.504l0.164,-0.488l0.172,-0.511l0.177,-0.533l0.184,-0.553l0.188,-0.573l0.195,-0.592l0.199,-0.612l0.205,-0.63l0.209,-0.648l0.214,-0.664l0.445,-1.387l0.462,-1.451l0.48,-1.516l0.497,-1.576l0.512,-1.635l0.528,-1.691l0.543,-1.743l0.556,-1.793l0.569,-1.841l0.582,-1.885l0.593,-1.927l0.603,-1.966l0.614,-2.003l0.623,-2.037l0.631,-2.068l0.639,-2.096l0.646,-2.122l1.31,-4.312l1.328,-4.383l1.343,-4.434l1.349,-4.462l1.351,-4.471l2.682,-8.881l1.319,-4.368l1.298,-4.291l1.27,-4.195l1.236,-4.075l0.603,-1.987l0.593,-1.95l0.582,-1.909l0.57,-1.867l0.556,-1.822l0.544,-1.774l0.529,-1.723l0.514,-1.67l0.499,-1.615l0.482,-1.557l0.465,-1.497l0.448,-1.433l0.429,-1.369l0.411,-1.3l0.391,-1.231l0.37,-1.156l0.179,-0.554l0.172,-0.533l0.167,-0.514l0.163,-0.495l0.156,-0.476l0.152,-0.457l0.146,-0.437l0.134,-0.396l0.082,-0.247l0.076,-0.231l0.075,-0.239l0.076,-0.245l0.077,-0.251l0.077,-0.257l0.077,-0.264l0.078,-0.27l0.079,-0.275l0.079,-0.28l0.164,-0.584l0.169,-0.6l0.174,-0.615l0.091,-0.321l0.093,-0.322l0.096,-0.327l0.098,-0.332l0.102,-0.335l0.105,-0.34l0.109,-0.344l0.112,-0.348l0.117,-0.352l0.122,-0.356l0.123,-0.35l0.069,-0.19l0.066,-0.182l0.068,-0.183l0.07,-0.184l0.071,-0.185l0.072,-0.185l0.074,-0.186l0.076,-0.186l0.078,-0.188l0.079,-0.188l0.068,-0.159l0.073,-0.168l0.134,-0.299l0.139,-0.303l0.14,-0.298l0.141,-0.291l0.141,-0.285l0.142,-0.28l0.141,-0.274l0.14,-0.269l0.139,-0.263l0.139,-0.258l0.138,-0.253l0.136,-0.248l0.136,-0.246l0.261,-0.466l0.498,-0.886l0.236,-0.421l0.11,-0.198l0.109,-0.197l0.105,-0.192l0.102,-0.188l0.097,-0.182l0.094,-0.179l0.091,-0.174l0.086,-0.168l0.082,-0.164l0.07,-0.144l0.005,-0.009l0.002,-0.006l0.006,-0.014l0.008,-0.021l0.011,-0.029l0.013,-0.035l0.015,-0.042l0.016,-0.05l0.019,-0.056l0.019,-0.062l0.02,-0.068l0.022,-0.075l0.023,-0.082l0.024,-0.087l0.025,-0.093l0.025,-0.098l0.024,-0.095l0.058,-0.234l0.058,-0.244l0.06,-0.261l0.133,-0.586l0.072,-0.315l0.077,-0.334l0.082,-0.35l0.087,-0.355l0.049,-0.197l0.05,-0.194l0.052,-0.196l0.054,-0.2l0.057,-0.205l0.06,-0.209l0.063,-0.212l0.066,-0.215l0.069,-0.22l0.074,-0.224l0.077,-0.227l0.082,-0.231l0.087,-0.235l0.092,-0.24l0.096,-0.241l0.102,-0.245l0.109,-0.25l0.115,-0.253l0.122,-0.255l0.129,-0.26l0.136,-0.262l0.145,-0.264l0.142,-0.248l0.091,-0.152l0.082,-0.135l0.085,-0.136l0.086,-0.134l0.089,-0.136l0.092,-0.136l0.094,-0.135l0.097,-0.137l0.1,-0.137l0.132,-0.177l0.183,-0.232l0.179,-0.214l0.149,-0.171l0.136,-0.152l0.202,-0.221l0.183,-0.198l0.166,-0.182l0.058,-0.064l0.708,-1.668l1.896,-2.032l2.475,-1.261l2.758,-0.338l2.707,0.625Zm-106.087,283.611l-0.007,0.01l0.034,-0.047l-0.027,0.037Zm95.106,-277.463l-0.048,0.256l-0.041,0.281l-0.03,0.304l-0.015,0.279l-0.003,0.226l0.002,0.182l0.007,0.186l0.013,0.192l0.019,0.198l0.01,0.086l0.124,-2.355l-0.038,0.165Z" style="fill:#002b28;"/>
<path class="third" d="M361.536,138.143l0.283,0.013l0.285,0.023l0.287,0.032l0.292,0.042l0.288,0.053l0.288,0.062l0.289,0.072l0.285,0.082l0.284,0.092l0.276,0.101l0.274,0.109l0.269,0.119l0.258,0.125l0.253,0.132l0.245,0.138l0.236,0.144l0.281,0.183l0.378,0.271l0.389,0.317l0.356,0.322l0.32,0.323l0.286,0.317l0.255,0.31l0.229,0.304l0.2,0.289l0.179,0.279l0.16,0.268l0.141,0.254l0.125,0.242l0.112,0.229l0.1,0.219l0.089,0.206l0.079,0.194l0.072,0.186l0.065,0.174l0.058,0.165l0.052,0.155l0.053,0.163l0.032,0.104l0.082,0.106l0.104,0.136l0.173,0.233l0.176,0.246l0.169,0.245l0.163,0.244l0.157,0.241l0.151,0.24l0.146,0.239l0.139,0.235l0.136,0.235l0.131,0.233l0.125,0.229l0.122,0.227l0.117,0.224l0.114,0.223l0.111,0.22l0.107,0.217l0.103,0.214l0.101,0.212l0.098,0.21l0.095,0.206l0.093,0.203l0.09,0.201l0.09,0.203l0.167,0.379l0.162,0.374l0.154,0.359l0.294,0.684l0.137,0.318l0.133,0.303l0.133,0.297l0.059,0.131l0.061,0.134l0.061,0.129l0.058,0.124l0.059,0.121l0.056,0.116l0.055,0.111l0.055,0.107l0.052,0.101l0.051,0.096l0.05,0.092l0.048,0.086l0.047,0.082l0.045,0.077l0.042,0.071l0.041,0.065l0.038,0.061l0.055,0.083l0.435,0.654l0.516,0.778l0.577,0.872l0.638,0.965l1.444,2.189l1.658,2.518l1.854,2.819l2.033,3.093l4.529,6.896l5.03,7.66l5.388,8.202l2.783,4.234l2.818,4.287l2.837,4.311l2.836,4.308l2.818,4.277l2.783,4.218l1.371,2.078l1.357,2.053l1.338,2.024l1.318,1.992l1.295,1.956l1.27,1.918l1.244,1.874l1.214,1.828l1.183,1.779l1.149,1.726l1.113,1.668l1.074,1.609l1.033,1.544l0.991,1.477l0.945,1.406l0.897,1.331l0.847,1.252l0.796,1.172l0.375,0.551l0.362,0.531l0.348,0.508l0.333,0.484l0.317,0.461l0.302,0.437l0.286,0.411l0.268,0.385l0.252,0.359l0.233,0.331l0.215,0.302l0.195,0.271l0.173,0.239l0.15,0.205l0.124,0.166l0.101,0.134l0.027,0.034l0.021,0.028l0.009,0.011l-0.006,-0.008l-0.029,-0.035l-0.058,-0.066l-0.098,-0.107l-0.046,-0.049l0.572,0.663l0.004,0.007l0.922,1.519l0.004,0.007l0.487,1.362l0.002,0.01l0.197,1.042l0.002,0.012l0.056,0.81l0.006,0.337l-0.035,0.578l-0.057,0.46l-0.079,0.447l-0.114,0.487l-0.127,0.426l-0.113,0.331l-0.103,0.273l-0.094,0.231l-0.089,0.207l-0.085,0.19l-0.083,0.178l-0.082,0.17l-0.081,0.164l-0.082,0.163l-0.082,0.161l-0.084,0.162l-0.091,0.171l-0.173,0.321l-0.188,0.342l-0.199,0.356l-0.21,0.371l-0.222,0.387l-0.235,0.404l-0.247,0.422l-0.259,0.44l-0.272,0.458l-0.284,0.475l-0.296,0.493l-0.309,0.511l-0.32,0.529l-0.332,0.545l-0.344,0.563l-0.354,0.579l-0.367,0.595l-0.376,0.612l-0.388,0.627l-0.398,0.642l-0.409,0.659l-0.845,1.356l-0.884,1.414l-0.919,1.465l-0.952,1.515l-0.984,1.561l-1.013,1.604l-1.04,1.643l-1.065,1.68l-1.088,1.713l-1.108,1.743l-1.127,1.77l-1.142,1.793l-1.157,1.814l-2.345,3.674l-2.375,3.716l-2.386,3.732l-2.38,3.72l-2.356,3.682l-2.314,3.619l-2.254,3.529l-1.099,1.721l-1.077,1.69l-1.053,1.653l-1.027,1.614l-0.999,1.572l-0.968,1.525l-0.935,1.476l-0.9,1.423l-0.862,1.367l-0.823,1.307l-0.779,1.244l-0.736,1.176l-0.689,1.108l-0.324,0.523l-0.313,0.506l-0.299,0.487l-0.286,0.465l-0.272,0.445l-0.258,0.424l-0.243,0.401l-0.228,0.378l-0.212,0.355l-0.196,0.329l-0.178,0.303l-0.161,0.276l-0.142,0.246l-0.121,0.214l-0.099,0.178l-0.081,0.149l-0.022,0.041l-0.019,0.036l-0.01,0.02l-0.021,0.042l-0.139,0.278l-0.163,0.319l-0.169,0.325l-0.174,0.328l-0.18,0.334l-0.186,0.341l-0.192,0.346l-0.197,0.352l-0.203,0.359l-0.21,0.366l-0.215,0.372l-0.221,0.38l-0.226,0.386l-0.233,0.393l-0.238,0.4l-0.243,0.406l-0.249,0.413l-0.254,0.42l-0.26,0.426l-0.265,0.433l-0.27,0.439l-0.275,0.445l-0.28,0.451l-0.285,0.458l-0.29,0.463l-0.294,0.469l-0.298,0.474l-0.305,0.482l-0.617,0.973l-0.635,0.995l-0.649,1.015l-0.664,1.031l-0.678,1.049l-0.689,1.063l-0.701,1.077l-0.71,1.089l-0.72,1.1l-0.728,1.111l-0.735,1.118l-0.742,1.126l-0.746,1.132l-0.75,1.136l-1.508,2.279l-1.511,2.281l-2.999,4.52l-1.47,2.218l-1.441,2.175l-0.705,1.067l-0.695,1.052l-0.682,1.036l-0.67,1.017l-0.656,0.998l-0.64,0.977l-0.623,0.955l-0.606,0.93l-0.587,0.905l-0.568,0.878l-0.546,0.849l-0.524,0.819l-0.502,0.789l-0.239,0.379l-0.235,0.371l-0.228,0.363l-0.221,0.354l-0.214,0.344l-0.207,0.335l-0.2,0.324l-0.193,0.314l-0.184,0.304l-0.177,0.292l-0.168,0.281l-0.16,0.268l-0.151,0.257l-0.143,0.243l-0.132,0.23l-0.123,0.215l-0.113,0.201l-0.102,0.184l-0.091,0.167l-0.079,0.148l-0.066,0.126l-0.084,0.167l-0.093,0.18l-0.124,0.229l-0.122,0.217l-0.122,0.207l-0.121,0.196l-0.119,0.189l-0.117,0.18l-0.116,0.172l-0.114,0.166l-0.113,0.161l-0.112,0.156l-0.109,0.148l-0.107,0.144l-0.112,0.149l-0.198,0.257l-0.199,0.252l-0.191,0.238l-0.182,0.225l-0.172,0.211l-0.319,0.389l-0.141,0.174l-0.129,0.16l-0.115,0.145l-0.109,0.139l-0.029,0.038l-0.08,0.42l-1.423,2.387l-2.153,1.755l-2.624,0.913l-2.779,-0.039l-2.597,-0.987l-2.102,-1.816l-1.355,-2.426l-0.444,-2.742l0.002,-0.142l0.01,-0.248l0.016,-0.245l0.021,-0.233l0.027,-0.231l0.032,-0.225l0.035,-0.215l0.039,-0.211l0.042,-0.204l0.046,-0.198l0.047,-0.189l0.05,-0.186l0.053,-0.182l0.063,-0.205l0.101,-0.299l0.117,-0.314l0.119,-0.294l0.121,-0.277l0.123,-0.263l0.123,-0.248l0.123,-0.235l0.123,-0.225l0.122,-0.213l0.121,-0.203l0.12,-0.195l0.119,-0.187l0.118,-0.18l0.116,-0.173l0.114,-0.166l0.113,-0.16l0.111,-0.155l0.11,-0.15l0.109,-0.146l0.106,-0.141l0.111,-0.145l0.196,-0.252l0.197,-0.247l0.188,-0.233l0.18,-0.221l0.327,-0.4l0.148,-0.181l0.135,-0.167l0.122,-0.152l0.106,-0.135l0.098,-0.127l0.031,-0.041l0.034,-0.046l0.03,-0.041l0.023,-0.032l0.006,-0.008l0.055,-0.109l0.142,-0.273l0.147,-0.274l0.151,-0.277l0.156,-0.282l0.161,-0.287l0.168,-0.293l0.173,-0.3l0.179,-0.306l0.184,-0.313l0.191,-0.321l0.197,-0.328l0.203,-0.335l0.209,-0.344l0.215,-0.35l0.22,-0.358l0.227,-0.366l0.232,-0.374l0.238,-0.38l0.244,-0.388l0.249,-0.396l0.257,-0.405l0.523,-0.823l0.546,-0.854l0.566,-0.879l0.585,-0.905l0.602,-0.928l0.62,-0.952l0.635,-0.972l0.651,-0.993l0.664,-1.012l0.678,-1.03l0.689,-1.046l0.701,-1.061l0.711,-1.075l1.446,-2.184l1.474,-2.223l2.998,-4.518l1.505,-2.273l1.501,-2.268l0.744,-1.127l0.74,-1.122l0.734,-1.115l0.727,-1.106l0.719,-1.097l0.71,-1.085l0.699,-1.072l0.689,-1.058l0.676,-1.043l0.662,-1.025l0.647,-1.006l0.632,-0.986l0.615,-0.964l0.598,-0.943l0.29,-0.459l0.286,-0.455l0.282,-0.448l0.275,-0.441l0.271,-0.434l0.264,-0.427l0.259,-0.419l0.254,-0.412l0.247,-0.403l0.24,-0.395l0.235,-0.387l0.228,-0.378l0.221,-0.369l0.214,-0.36l0.207,-0.349l0.199,-0.341l0.192,-0.329l0.184,-0.319l0.177,-0.308l0.167,-0.297l0.16,-0.285l0.151,-0.272l0.141,-0.259l0.132,-0.246l0.123,-0.231l0.112,-0.215l0.102,-0.2l0.11,-0.22l0.059,-0.117l0.078,-0.152l0.077,-0.148l0.083,-0.156l0.153,-0.281l0.168,-0.3l0.177,-0.312l0.188,-0.326l0.199,-0.343l0.212,-0.359l0.224,-0.378l0.238,-0.396l0.249,-0.415l0.263,-0.433l0.275,-0.452l0.287,-0.47l0.3,-0.489l0.312,-0.507l0.324,-0.524l0.337,-0.544l0.705,-1.133l0.751,-1.201l0.793,-1.264l0.833,-1.325l0.872,-1.382l0.908,-1.437l0.942,-1.487l0.975,-1.535l1.004,-1.58l1.032,-1.622l1.057,-1.659l1.081,-1.695l1.102,-1.727l2.258,-3.534l2.316,-3.623l2.357,-3.684l2.379,-3.72l2.384,-3.728l2.372,-3.71l2.341,-3.668l1.153,-1.808l1.138,-1.787l1.123,-1.763l1.103,-1.736l1.082,-1.704l1.059,-1.671l1.033,-1.632l1.006,-1.592l0.975,-1.547l0.942,-1.499l0.908,-1.447l0.871,-1.393l0.832,-1.336l0.399,-0.643l0.39,-0.628l0.378,-0.612l0.367,-0.595l0.355,-0.577l0.343,-0.56l0.33,-0.541l0.318,-0.523l0.305,-0.502l0.291,-0.483l0.278,-0.462l0.07,-0.118l-0.113,-0.165l-0.332,-0.482l-0.346,-0.504l-0.36,-0.525l-0.373,-0.547l-0.388,-0.569l-0.81,-1.193l-0.861,-1.274l-0.91,-1.349l-0.956,-1.422l-0.999,-1.491l-1.042,-1.557l-1.082,-1.619l-1.119,-1.678l-1.155,-1.734l-1.188,-1.787l-1.219,-1.835l-1.247,-1.881l-1.275,-1.923l-1.299,-1.962l-1.321,-1.997l-1.341,-2.029l-1.359,-2.057l-1.375,-2.082l-2.786,-4.224l-2.822,-4.283l-2.839,-4.312l-2.839,-4.316l-2.821,-4.29l-2.785,-4.238l-5.389,-8.204l-5.031,-7.66l-4.527,-6.893l-2.03,-3.089l-1.851,-2.813l-1.652,-2.51l-1.437,-2.178l-0.63,-0.954l-0.569,-0.86l-0.506,-0.762l-0.457,-0.687l-0.142,-0.216l-0.154,-0.242l-0.149,-0.241l-0.144,-0.239l-0.138,-0.237l-0.134,-0.234l-0.129,-0.233l-0.125,-0.23l-0.121,-0.228l-0.117,-0.226l-0.114,-0.223l-0.11,-0.221l-0.106,-0.218l-0.104,-0.215l-0.1,-0.213l-0.098,-0.21l-0.095,-0.206l-0.096,-0.211l-0.174,-0.39l-0.169,-0.387l-0.163,-0.375l-0.301,-0.702l-0.143,-0.333l-0.137,-0.316l-0.134,-0.306l-0.062,-0.138l-0.062,-0.139l-0.061,-0.135l-0.061,-0.13l-0.058,-0.125l-0.057,-0.12l-0.056,-0.117l-0.055,-0.11l-0.053,-0.105l-0.051,-0.101l-0.05,-0.095l-0.049,-0.091l-0.046,-0.085l-0.044,-0.078l-0.043,-0.073l-0.04,-0.069l-0.038,-0.062l-0.036,-0.056l-0.033,-0.052l-0.03,-0.045l-0.027,-0.039l-0.024,-0.034l-0.032,-0.042l-0.007,-0.01l-0.008,-0.01l-0.006,-0.007l-0.005,-0.007l-0.006,-0.006l-0.003,-0.004l-0.002,-0.003l-0.002,-0.001l-0.093,-0.094l-0.25,-0.266l-0.305,-0.362l-0.262,-0.347l-0.226,-0.329l-0.192,-0.308l-0.166,-0.288l-0.145,-0.271l-0.124,-0.254l-0.108,-0.234l-0.093,-0.216l-0.083,-0.205l-0.073,-0.191l-0.063,-0.174l-0.064,-0.186l-0.027,-0.082l-0.748,-0.921l-0.91,-2.625l0.043,-2.778l0.991,-2.596l1.819,-2.1l2.427,-1.352l2.743,-0.44l0.153,0.003Zm-11.764,269.802l0.013,-0.032l0.053,-0.142l0.043,-0.129l0.037,-0.12l0.029,-0.098l0.027,-0.103l0.027,-0.105l0.026,-0.116l0.026,-0.122l0.024,-0.13l0.022,-0.134l0.02,-0.144l0.017,-0.152l0.014,-0.153l0.012,-0.166l0.006,-0.171l0.001,-0.064l-0.397,2.081Zm78.805,-143.737l0.189,0.196l-0.175,-0.193l-0.099,-0.113l0.085,0.11Zm-69.666,-110.462l0.237,0.077l0.238,0.069l0.239,0.06l0.239,0.051l0.237,0.043l0.241,0.035l0.235,0.027l0.231,0.018l0.229,0.011l0.098,0.001l-2.433,-0.468l0.209,0.076Zm-1.504,-0.72l0.194,0.118l0.203,0.115l0.08,0.042l-0.684,-0.409l0.207,0.134Z" style="fill:#002b28;"/></g><g><rect x="500" y="0" width="500" height="500" style="fill:#222;"/></g><g><rect x="0" y="500" width="500" height="500" style="fill:#222;"/></g><g><rect x="500" y="500" width="500" height="500" style="fill:#222;"/></g></svg>